:SAMPLES-PER-SECOND 30
:FULLY-SPECIFIED
:DEGREES
21
root  2.81405 41.0058 -2.21948 -179.92 -86.0567 -178.249
RightUpLeg  -0.749754 -7.85153 -6.72332
RightLeg  2.06173 0.729196 2.65956
RightFoot  -1.01738 -0.101022 1.04065
RightToes  -5.8209e-011 0 -3.6325e-017
Spine  0.265558 0.245039 1.27178
Spine1  1.00973 0.17741 0.0703618
HEad  -2.90034 0.597783 -0.749953
LeftShoulder1  1.01396 -1.23761 -14.3566
LeftArm  -13.7207 11.4859 -1.9476
LeftForeArm  10.1464 -2.88972 -3.02064
LeftHand  -0.244104 0.0205437 5.32207
RightShoulder  0.723123 0.421195 11.2636
RightArm  -19.8661 1.59729 0.833035
RightForeArm  4.73485 1.88632 3.39118
RightHand  -0.614317 0.987489 -11.2945
LeftUpLeg  -0.165879 5.89114 4.44468
LeftLeg  2.0538 13.0964 -3.67815
LeftFoot  -3.0029 0.122948 -1.38691
LeftToes  1.76439e-010 -1.07097e-011 2.32476e-011
22
root  2.81063 41.0062 -2.22885 -179.544 -86.0888 -178.609
RightUpLeg  -0.778006 -7.86275 -6.7358
RightLeg  2.11492 0.706393 2.66076
RightFoot  -1.05651 -0.0983273 1.01351
RightToes  -5.8209e-011 0 -3.6325e-017
Spine  0.290441 0.256837 1.24005
Spine1  1.06989 0.149616 0.281613
HEad  -2.813 0.456978 -0.929889
LeftShoulder1  1.04148 -1.27262 -14.8128
LeftArm  -13.6505 11.6311 -1.83146
LeftForeArm  10.1576 -2.99603 -3.0363
LeftHand  -0.244104 0.0205437 5.32207
RightShoulder  0.750403 0.540418 11.4109
RightArm  -19.7449 1.35571 0.798643
RightForeArm  4.71419 1.84967 3.39381
RightHand  -0.605605 0.911352 -11.2645
LeftUpLeg  -0.165198 5.87338 4.42921
LeftLeg  2.00854 13.0844 -3.68568
LeftFoot  -2.97643 0.124338 -1.40851
LeftToes  1.76439e-010 -1.07097e-011 2.32476e-011
23
root  2.80256 41.0067 -2.23706 -179.046 -86.131 -179.083
RightUpLeg  -0.792035 -7.88326 -6.76394
RightLeg  2.13981 0.685366 2.66668
RightFoot  -1.09642 -0.0981018 1.02224
RightToes  -5.8209e-011 0 -3.6325e-017
Spine  0.230822 0.296267 1.2628
Spine1  1.24099 0.153149 0.462264
HEad  -2.79752 0.436099 -1.1155
LeftShoulder1  1.09328 -1.40947 -15.3047
LeftArm  -13.554 11.6646 -1.69445
LeftForeArm  10.033 -2.88719 -3.05605
LeftHand  -0.244104 0.0205437 5.32207
RightShoulder  0.751276 0.542154 11.4256
RightArm  -19.6733 1.14224 0.878938
RightForeArm  4.74429 1.69895 3.37138
RightHand  -0.595679 0.883081 -11.1303
LeftUpLeg  -0.169139 5.83175 4.39489
LeftLeg  1.95788 13.0836 -3.67944
LeftFoot  -2.9495 0.124983 -1.41853
LeftToes  1.76439e-010 -1.07097e-011 2.32476e-011
24
root  2.78984 41.0073 -2.24509 -178.479 -86.1813 -179.599
RightUpLeg  -0.818317 -7.91019 -6.7971
RightLeg  2.14689 0.664532 2.68061
RightFoot  -1.13145 -0.0982247 1.03575
RightToes  -5.8209e-011 0 -3.6325e-017
Spine  0.182652 0.319164 1.37191
Spine1  1.32401 0.172555 0.465062
HEad  -2.74028 0.60512 -1.21148
LeftShoulder1  1.14357 -1.58903 -15.5339
LeftArm  -13.4669 11.7331 -1.65206
LeftForeArm  9.96867 -2.6558 -3.05298
LeftHand  -0.244104 0.0205437 5.32207
RightShoulder  0.742654 0.474884 11.5329
RightArm  -19.6026 1.09903 0.918801
RightForeArm  4.9623 1.35262 3.33062
RightHand  -0.59304 0.961692 -10.951
LeftUpLeg  -0.185667 5.78002 4.3549
LeftLeg  1.90475 13.0661 -3.6694
LeftFoot  -2.92984 0.127558 -1.45856
LeftToes  1.76439e-010 -1.07097e-011 2.32476e-011
25
root  2.77455 41.0077 -2.2549 -178.048 -86.2143 -179.948
RightUpLeg  -0.89227 -7.92464 -6.80392
RightLeg  2.17369 0.633561 2.69334
RightFoot  -1.13798 -0.095796 1.00911
RightToes  -5.8209e-011 0 -3.6325e-017
Spine  0.212387 0.305435 1.57849
Spine1  1.20086 0.196894 0.249173
HEad  -2.54793 0.742919 -1.2101
LeftShoulder1  1.16055 -1.68994 -15.4182
LeftArm  -13.3353 11.8903 -1.69439
LeftForeArm  10.0084 -2.52157 -3.06651
LeftHand  -0.244104 0.0205437 5.32207
RightShoulder  0.760215 0.510691 11.8316
RightArm  -19.4559 1.08985 0.731681
RightForeArm  5.14066 0.961213 3.30893
RightHand  -0.589554 0.992554 -10.8372
LeftUpLeg  -0.219385 5.73294 4.32717
LeftLeg  1.8278 13.0547 -3.66167
LeftFoot  -2.89695 0.132719 -1.53879
LeftToes  1.76439e-010 -1.07097e-011 2.32476e-011
26
root  2.75736 41.0079 -2.26481 -177.859 -86.2294 179.946
RightUpLeg  -0.986308 -7.93219 -6.78708
RightLeg  2.23639 0.587236 2.70574
RightFoot  -1.11754 -0.0918091 0.957848
RightToes  -5.8209e-011 0 -3.6325e-017
Spine  0.269303 0.281551 1.82649
Spine1  1.02001 0.220062 -0.0148691
HEad  -2.34473 0.720473 -1.14661
LeftShoulder1  1.14748 -1.68152 -15.1835
LeftArm  -13.1597 12.0038 -1.71776
LeftForeArm  10.0694 -2.50199 -3.11658
LeftHand  -0.244104 0.0205437 5.32207
RightShoulder  0.794902 0.642739 12.0927
RightArm  -19.2728 0.953985 0.372857
RightForeArm  5.0955 0.760844 3.32137
RightHand  -0.572719 0.848161 -10.7637
LeftUpLeg  -0.246051 5.69238 4.30942
LeftLeg  1.74588 13.0787 -3.64647
LeftFoot  -2.85279 0.135292 -1.57879
LeftToes  1.76439e-010 -1.07097e-011 2.32476e-011
